<svg xmlns="http://www.w3.org/2000/svg" width="220" height="420" viewBox="0 0 220 420">
  <rect width="220" height="420" fill="#fff"/>
  <rect width="220" height="56" fill="#fff"/>
  <text x="16" y="28" font-family="Poppins, sans-serif" font-size="10" font-weight="700" fill="#232323">Vona Korpa Novi Sad</text>
  <text x="16" y="42" font-family="Poppins, sans-serif" font-size="7" fill="#7E7E7E">Sterijina 3, Novi Sad</text>
  <rect x="12" y="64" width="196" height="72" rx="10" fill="#f8f8f8"/>
  <rect x="20" y="72" width="56" height="56" rx="8" fill="#FDC04C"/>
  <text x="84" y="92" font-family="Poppins, sans-serif" font-size="9" font-weight="600" fill="#232323">Apricot</text>
  <text x="84" y="106" font-family="Poppins, sans-serif" font-size="8" fill="#4C996C">320 RSD/kg</text>
  <rect x="84" y="112" width="88" height="22" rx="11" fill="#4C996C"/>
  <text x="98" y="127" font-family="Poppins, sans-serif" font-size="7" fill="#fff">Reserve now</text>
  <rect x="12" y="144" width="196" height="72" rx="10" fill="#f8f8f8"/>
  <rect x="20" y="152" width="56" height="56" rx="8" fill="#E07A5F"/>
  <text x="84" y="172" font-family="Poppins, sans-serif" font-size="9" font-weight="600" fill="#232323">Apple  Fuji</text>
  <text x="84" y="186" font-family="Poppins, sans-serif" font-size="8" fill="#4C996C">280 RSD/kg</text>
  <rect x="84" y="192" width="88" height="22" rx="11" fill="#4C996C"/>
  <text x="98" y="207" font-family="Poppins, sans-serif" font-size="7" fill="#fff">Reserve now</text>
  <rect x="12" y="224" width="196" height="72" rx="10" fill="#f8f8f8"/>
  <rect x="20" y="232" width="56" height="56" rx="8" fill="#96C5A3"/>
  <text x="84" y="252" font-family="Poppins, sans-serif" font-size="9" font-weight="600" fill="#232323">Apple  Gala</text>
  <text x="84" y="266" font-family="Poppins, sans-serif" font-size="8" fill="#4C996C">260 RSD/kg</text>
  <rect x="84" y="272" width="88" height="22" rx="11" fill="#4C996C"/>
  <text x="98" y="287" font-family="Poppins, sans-serif" font-size="7" fill="#fff">Reserve now</text>
  <rect y="372" width="220" height="48" fill="#fff" stroke="#eee"/>
  <circle cx="44" cy="396" r="10" fill="#4C996C"/>
  <circle cx="88" cy="396" r="10" fill="#D9D9D9"/>
  <circle cx="132" cy="396" r="10" fill="#D9D9D9"/>
  <circle cx="176" cy="396" r="10" fill="#D9D9D9"/>
</svg>
